# xmcd CD database file
#
# Track frame offsets:
#	150
#	21814
#	45818
#	56978
#	76713
#
# Disc length: 1397 seconds
#
# Revision: 0
# Processed by: cddbd v1.5.2PL0 Copyright (c) Steve Scherf et al.
# Submitted via: CDex 1.50
#
DISCID=2e057305
DTITLE=Naked As We Came - Wooden Harvest
DYEAR=1900
DGENRE=Jazz
TTITLE0=All these nights
TTITLE1=Home
TTITLE2=Speak to me
TTITLE3=Your words
TTITLE4=Lonesome traveller
EXTD=
EXTT0=
EXTT1=
EXTT2=
EXTT3=
EXTT4=
PLAYORDER=
